<svg width="850" height="850" viewBox="0 0 850 850" fill="none" xmlns="http://www.w3.org/2000/svg">
<rect width="850" height="850" fill="white"/>
<path d="M577.657 150V588.817L578.457 590L579.257 588.817H629.641L630.441 590V397.204L631.241 396.021H708.016L708.816 397.204V524.946L688.822 554.516V555.699L642.437 624.301H174.584V625.484L130.598 690.538V691.72L125 700H349.729L352.128 696.452H352.928L355.327 692.903H356.127L360.926 685.806H361.725L364.125 682.258H673.627L677.626 676.344V675.161L690.422 656.237V655.054L692.021 652.688H692.821V651.505L760 552.151V150H708.816V165.376L708.016 166.559L708.816 167.742V320.323L708.016 321.505H631.241L630.441 320.323V150H577.657Z" fill="black"/>
<path d="M90 150L90.8 151.183V155.914L91.6 157.097V161.828L92.4 163.011V167.742L93.2 168.925V173.656L94 174.839V178.387L94.8 179.57V184.301L95.6 185.484V190.215L96.4 191.398V196.129L97.2 197.312V202.043L98 203.226V207.957L98.8 209.14V213.871L99.6 215.054V219.785L100.4 220.968V225.699L101.2 226.882V231.613L102 232.796V237.527L102.8 238.71V243.441L103.6 244.624V249.355L104.4 250.538V255.269L105.2 256.452V261.183L106 262.366V267.097L106.8 268.28V273.011L107.6 274.194V278.925L108.4 280.108V284.839L109.2 286.021V290.753L110 291.935V296.667L110.8 297.849V301.398L111.6 302.581V307.312L112.4 308.495V313.226L113.2 314.409V319.14L114 320.323V325.054L114.8 326.237V330.968L115.6 332.151V336.882L116.4 338.065V342.796L117.2 343.978V348.71L118 349.892V354.624L118.8 355.806V360.538L119.6 361.72V366.452L120.4 367.634V372.366L121.2 373.548V378.28L122 379.462V384.194L122.8 385.376V390.108L123.6 391.29V396.021L124.4 397.204V401.935L125.2 403.118V407.849L126 409.032V413.763L126.8 414.946V419.677L127.6 420.86V425.591L128.4 426.774V431.505L129.2 432.688V437.419L130 438.602V443.333L130.8 444.516V449.247L131.6 450.43V455.161L132.4 456.344V461.075L133.2 462.258V466.989L134 468.172V472.903L134.8 474.086V478.817L135.6 480V484.731L136.4 485.914V490.645L137.2 491.828V496.559L138 497.742V502.473L138.8 503.656V508.387L139.6 509.57V514.301L140.4 515.484V520.215L141.2 521.398V526.129L142 527.312V532.043L142.8 533.226V536.774L143.6 537.957V543.871L144.4 545.054V549.785L145.2 550.968V554.516L146 555.699V560.43L146.8 561.613V566.344L147.6 567.527V572.258L148.4 573.441V578.172L149.2 579.355V584.086L150 585.269V588.817L150.8 590L151.6 588.817H203.6V585.269L204.4 584.086V581.72L205.2 580.538V578.172L206 576.989V574.624L206.8 573.441V571.075L207.6 569.892V566.344L208.4 565.161V562.796L209.2 561.613V558.064L210 556.882V554.516L210.8 553.333V549.785L211.6 548.602V546.237L212.4 545.054V541.505L213.2 540.323V537.957L214 536.774V533.226L214.8 532.043V528.495L215.6 527.312V524.946L216.4 523.763V520.215L217.2 519.032V515.484L218 514.301V510.753L218.8 509.57V506.021L219.6 504.839V501.29L220.4 500.108V495.376L221.2 494.194V490.645L222 489.462V485.914L222.8 484.731V481.183L223.6 480V475.269L224.4 474.086V470.538L225.2 469.355V465.806L226 464.624V461.075L226.8 459.892V456.344L227.6 455.161V450.43L228.4 449.247V445.699L229.2 444.516V440.968L230 439.785V436.237L230.8 435.054V431.505L231.6 430.323V426.774L232.4 425.591V422.043L233.2 420.86V417.312L234 416.129V412.581L234.8 411.398V407.849L235.6 406.667V403.118L236.4 401.935V398.387L237.2 397.204V393.656L238 392.473V388.925L238.8 387.742V384.194L239.6 383.011V379.462L240.4 378.28V374.731L241.2 373.548V370L242 368.817V365.269L242.8 364.086V360.538L243.6 359.355V355.806L244.4 354.624V351.075L245.2 349.892V345.161L246 343.978V340.43L246.8 339.247V335.699L247.6 334.516V329.785L249.2 327.419L250 328.602V330.968L250.8 332.151V335.699L251.6 336.882V340.43L252.4 341.613V346.344L253.2 347.527V351.075L254 352.258V355.806L254.8 356.989V360.538L255.6 361.72V365.269L256.4 366.452V370L257.2 371.183V374.731L258 375.914V380.645L258.8 381.828V385.376L259.6 386.559V390.108L260.4 391.29V394.839L261.2 396.021V399.57L262 400.753V404.301L262.8 405.484V409.032L263.6 410.215V413.763L264.4 414.946V418.495L265.2 419.677V423.226L266 424.409V427.957L266.8 429.14V432.688L267.6 433.871V437.419L268.4 438.602V442.151L269.2 443.333V446.882L270 448.065V451.613L270.8 452.796V457.527L271.6 458.71V461.075L272.4 462.258V466.989L273.2 468.172V471.72L274 472.903V476.452L274.8 477.634V481.183L275.6 482.366V485.914L276.4 487.097V490.645L277.2 491.828V495.376L278 496.559V500.108L278.8 501.29V504.839L279.6 506.021V509.57L280.4 510.753V514.301L281.2 515.484V519.032L282 520.215V523.763L282.8 524.946V528.495L283.6 529.677V533.226L284.4 534.409V537.957L285.2 539.14V542.688L286 543.871V547.419L286.8 548.602V552.151L287.6 553.333V556.882L288.4 558.064V561.613L289.2 562.796V566.344L290 567.527V571.075L290.8 572.258V575.806L291.6 576.989V580.538L292.4 581.72V585.269L293.2 586.452V588.817L294 590L294.8 588.817H331.6L332.4 590V588.817L333.2 587.634V581.72L334 580.538V574.624L334.8 573.441V567.527L335.6 566.344V560.43L336.4 559.247V554.516L337.2 553.333V547.419L338 546.237V540.323L338.8 539.14V534.409L339.6 533.226V527.312L340.4 526.129V520.215L341.2 519.032V513.118L342 511.935V507.204L342.8 506.021V500.108L343.6 498.925V493.011L344.4 491.828V485.914L345.2 484.731V478.817L346 477.634V472.903L346.8 471.72V465.806L347.6 464.624V458.71L348.4 457.527V452.796L349.2 451.613V445.699L350 444.516V439.785L350.8 438.602V432.688L351.6 431.505V426.774L352.4 425.591V419.677L353.2 418.495V412.581L354 411.398V406.667L354.8 405.484V399.57L355.6 398.387V393.656L356.4 392.473V386.559L357.2 385.376V380.645L358 379.462V373.548L358.8 372.366V367.634L359.6 366.452V360.538L360.4 359.355V354.624L361.2 353.441V347.527L362 346.344V341.613L362.8 340.43L365.2 343.978V345.161L371.6 354.624H372.4L374.8 358.172H375.6L378 361.72H378.8L380.4 364.086H381.2L382 365.269H382.8L384.4 367.634H385.2L386 368.817H386.8L387.6 370H389.2L390 371.183H390.8L391.6 372.366H392.4L393.2 373.548H394.8L395.6 374.731H397.2L398 375.914H399.6L400.4 377.097H402.8L403.6 378.28H406L406.8 379.462H408.4L409.2 380.645H411.6L412.4 381.828H414.8L415.6 383.011H418L418.8 384.194H421.2L422 385.376H423.6L424.4 386.559H426.8L427.6 387.742H430L430.8 388.925H433.2L434 390.108H435.6L436.4 391.29H438.8L439.6 392.473H442L442.8 393.656H445.2L446 394.839H447.6L448.4 396.021H450.8L451.6 397.204H454L454.8 398.387H457.2L458 399.57H459.6L460.4 400.753H462.8L463.6 401.935H466L466.8 403.118H469.2L470 404.301H472.4L473.2 405.484H475.6L476.4 406.667H478L478.8 407.849H481.2L482 409.032H484.4L485.2 410.215H487.6L488.4 411.398H490L490.8 412.581H493.2L494 413.763H496.4L497.2 414.946H498.8L499.6 416.129H500.4L501.2 417.312H502L503.6 419.677V420.86L506 424.409V426.774L506.8 427.957V443.333L507.6 444.516V495.376L508.4 496.559V502.473L507.6 503.656V507.204L506.8 508.387V509.57L503.6 514.301H502L501.2 515.484L500.4 514.301H398L397.2 515.484L395.6 513.118V457.527L394.8 456.344L394 457.527H362V458.71L361.2 459.892V463.441L360.4 464.624V469.355L359.6 470.538V476.452L358.8 477.634V483.548L358 484.731V490.645L357.2 491.828V497.742L356.4 498.925V504.839L355.6 506.021V511.935L354.8 513.118V519.032L354 520.215V526.129L353.2 527.312V533.226L352.4 534.409V541.505L351.6 542.688V559.247L352.4 560.43V562.796L354 565.161V566.344L354.8 567.527V568.71L358 573.441V574.624L361.2 579.355H362L364.4 582.903H365.2L366 584.086H366.8L367.6 585.269H368.4L369.2 586.452H370.8L371.6 587.634H373.2L374 588.817H519.6L520.4 587.634H522.8L523.6 586.452H526L526.8 585.269H528.4L529.2 584.086H530L530.8 582.903H531.6L532.4 581.72H533.2L534 580.538H534.8L535.6 579.355H536.4L538 576.989H538.8L540.4 574.624H541.2L547.6 565.161V563.978L550 560.43V559.247L551.6 556.882V555.699L552.4 554.516V553.333L553.2 552.151V550.968L554 549.785V548.602L554.8 547.419V545.054L555.6 543.871V541.505L556.4 540.323V536.774L557.2 535.591V530.86L558 529.677V514.301L557.2 513.118V407.849L556.4 406.667V403.118L555.6 401.935V398.387L554.8 397.204V394.839L554 393.656V391.29L553.2 390.108V387.742L552.4 386.559V385.376L551.6 384.194V383.011L550.8 381.828V380.645L550 379.462V378.28L548.4 375.914V374.731L546 371.183V370L541.2 362.903H540.4L538 359.355H537.2L535.6 356.989H534.8L534 355.806H533.2L532.4 354.624H531.6L530.8 353.441H530L529.2 352.258H528.4L527.6 351.075H526.8L526 349.892H524.4L523.6 348.71H522.8L522 347.527H520.4L519.6 346.344H518L517.2 345.161H514.8L514 343.978H512.4L511.6 342.796H510L509.2 341.613H506.8L506 340.43H503.6L502.8 339.247H500.4L499.6 338.065H498L497.2 336.882H494.8L494 335.699H491.6L490.8 334.516H488.4L487.6 333.333H486L485.2 332.151H482.8L482 330.968H479.6L478.8 329.785H477.2L476.4 328.602H474L473.2 327.419H470.8L470 326.237H467.6L466.8 325.054H465.2L464.4 323.871H462L461.2 322.688H458.8L458 321.505H455.6L454.8 320.323H453.2L452.4 319.14H450L449.2 317.957H446.8L446 316.774H443.6L442.8 315.591H440.4L439.6 314.409H437.2L436.4 313.226H434.8L434 312.043H431.6L430.8 310.86H428.4L427.6 309.677H425.2L424.4 308.495H422L421.2 307.312H419.6L418.8 306.129H416.4L415.6 304.946H413.2L412.4 303.763H410L409.2 302.581H406.8L406 301.398H403.6L402.8 300.215H400.4L399.6 299.032H397.2L396.4 297.849H394L393.2 296.667H390.8L390 295.484H389.2L388.4 294.301V290.753L387.6 289.57V254.086L386.8 252.903V232.796L387.6 231.613V230.43L388.4 229.247V228.065L390.8 224.516H391.6L392.4 223.333H501.2L503.6 226.882V241.075L504.4 242.258V281.29H553.2V224.516L554 223.333V196.129L553.2 194.946V191.398L552.4 190.215V189.032L551.6 187.849V185.484L550.8 184.301V183.118L550 181.935V180.753L549.2 179.57V178.387L547.6 176.022V174.839L545.2 171.29V170.108L540.4 163.011H539.6L537.2 159.462H536.4L535.6 158.28H534.8L534 157.097H533.2L532.4 155.914H531.6L530.8 154.731H530L529.2 153.548H527.6L526.8 152.366H524.4L523.6 151.183H521.2L520.4 150H375.6L374.8 151.183H370.8L370 152.366H367.6L366.8 153.548H365.2L364.4 154.731H363.6L362.8 155.914H362L361.2 157.097H360.4L358.8 159.462H358L356.4 161.828H355.6L347.6 173.656V174.839L346 177.204V178.387L344.4 180.753V181.935L343.6 183.118V184.301L342.8 185.484V187.849L342 189.032V190.215L341.2 191.398V194.946L340.4 196.129V200.86L339.6 202.043V210.323L338.8 211.505V220.968L338 222.151V235.161L337.2 236.344V249.355L336.4 250.538V262.366L335.6 263.548V275.376L334.8 276.559V282.473L334 283.656V289.57L333.2 290.753V296.667L332.4 297.849V303.763L331.6 304.946V310.86L330.8 312.043V317.957L330 319.14V323.871L329.2 325.054V330.968L328.4 332.151V338.065L327.6 339.247V345.161L326.8 346.344V352.258L326 353.441V359.355L325.2 360.538V366.452L324.4 367.634V373.548L323.6 374.731V380.645L322.8 381.828V387.742L322 388.925V393.656L321.2 394.839V400.753L320.4 401.935V405.484L319.6 406.667V410.215L318.8 411.398V414.946L318 416.129V419.677L317.2 420.86V424.409L316.4 425.591V429.14L315.6 430.323L314.8 429.14V424.409L314 423.226V419.677L313.2 418.495V414.946L312.4 413.763V409.032L311.6 407.849V404.301L310.8 403.118V398.387L310 397.204V393.656L309.2 392.473V387.742L308.4 386.559V383.011L307.6 381.828V377.097L306.8 375.914V372.366L306 371.183V366.452L305.2 365.269V361.72L304.4 360.538V355.806L303.6 354.624V349.892L302.8 348.71V343.978L302 342.796V339.247L301.2 338.065V333.333L300.4 332.151V327.419L299.6 326.237V321.505L298.8 320.323V316.774L298 315.591V310.86L297.2 309.677V304.946L296.4 303.763V299.032L295.6 297.849V294.301L294.8 293.118V288.387L294 287.204V282.473L293.2 281.29V276.559L292.4 275.376V270.645L291.6 269.462V264.731L290.8 263.548V260L290 258.817V254.086L289.2 252.903V248.172L288.4 246.989V242.258L287.6 241.075V236.344L286.8 235.161V230.43L286 229.247V224.516L285.2 223.333V219.785L284.4 218.602V213.871L283.6 212.688V207.957L282.8 206.774V202.043L282 200.86V196.129L281.2 194.946V190.215L280.4 189.032V184.301L279.6 183.118V178.387L278.8 177.204V172.473L278 171.29V166.559L277.2 165.376V159.462L276.4 158.28V154.731L275.6 153.548V150H226L225.2 151.183V155.914L224.4 157.097V160.645L223.6 161.828V166.559L222.8 167.742V172.473L222 173.656V177.204L221.2 178.387V183.118L220.4 184.301V187.849L219.6 189.032V193.763L218.8 194.946V199.677L218 200.86V204.409L217.2 205.591V210.323L216.4 211.505V215.054L215.6 216.237V219.785L214.8 220.968V225.699L214 226.882V230.43L213.2 231.613V236.344L212.4 237.527V241.075L211.6 242.258V246.989L210.8 248.172V251.72L210 252.903V257.634L209.2 258.817V262.366L208.4 263.548V268.28L207.6 269.462V273.011L206.8 274.194V278.925L206 280.108V283.656L205.2 284.839V288.387L204.4 289.57V294.301L203.6 295.484V299.032L202.8 300.215V304.946L202 306.129V309.677L201.2 310.86V315.591L200.4 316.774V320.323L199.6 321.505V326.237L198.8 327.419V330.968L198 332.151V336.882L197.2 338.065V341.613L196.4 342.796V346.344L195.6 347.527V352.258L194.8 353.441V356.989L194 358.172V362.903L193.2 364.086V367.634L192.4 368.817V373.548L191.6 374.731V378.28L190.8 379.462V384.194L190 385.376V388.925L189.2 390.108V393.656L188.4 394.839V399.57L187.6 400.753V404.301L186.8 405.484V410.215L186 411.398V414.946L185.2 416.129V419.677L184.4 420.86V425.591L183.6 426.774V430.323L182.8 431.505V436.237L182 437.419V440.968L181.2 442.151V445.699L180.4 446.882V451.613L179.6 452.796V456.344L178.8 457.527V462.258L178 463.441V466.989L177.2 468.172V472.903L176.4 474.086V477.634L175.6 478.817V482.366L174.8 483.548V488.28L174 489.462V493.011L173.2 494.194V498.925L172.4 500.108V503.656L171.6 504.839V508.387L170.8 509.57V514.301L170 515.484V519.032L169.2 520.215V523.763L168.4 524.946V529.677L167.6 530.86L166.8 529.677V526.129L166 524.946V520.215L165.2 519.032V514.301L164.4 513.118V508.387L163.6 507.204V502.473L162.8 501.29V496.559L162 495.376V491.828L162.8 490.645V483.548L163.6 482.366V476.452L164.4 475.269V468.172L165.2 466.989V461.075L166 459.892V452.796L166.8 451.613V445.699L167.6 444.516V438.602L168.4 437.419V430.323L169.2 429.14V422.043L170 420.86V414.946L170.8 413.763V407.849L171.6 406.667V399.57L172.4 398.387V392.473L173.2 391.29V384.194L174 383.011V377.097L174.8 375.914V371.183L174 370V365.269L173.2 364.086V358.172L172.4 356.989V351.075L171.6 349.892V345.161L170.8 343.978V338.065L170 336.882V330.968L169.2 329.785V323.871L168.4 322.688V317.957L167.6 316.774V310.86L166.8 309.677V303.763L166 302.581V296.667L165.2 295.484V290.753L164.4 289.57V283.656L163.6 282.473V276.559L162.8 275.376V269.462L162 268.28V262.366L161.2 261.183V256.452L160.4 255.269V249.355L159.6 248.172V242.258L158.8 241.075V235.161L158 233.978V228.065L157.2 226.882V222.151L156.4 220.968V215.054L155.6 213.871V207.957L154.8 206.774V202.043L154 200.86V194.946L153.2 193.763V187.849L152.4 186.667V180.753L151.6 179.57V173.656L150.8 172.473V166.559L150 165.376V159.462L149.2 158.28V153.548L148.4 152.366V150H90Z" fill="black"/>
</svg>
